<svg width="33" height="33" viewBox="0 0 33 33" fill="none" xmlns="http://www.w3.org/2000/svg">
<g clip-path="url(#clip0)">
<path d="M4.58081 10.6895C4.01222 10.6895 3.5298 10.8877 3.13323 11.2843C2.73667 11.6809 2.53833 12.1567 2.53833 12.7121V21.2397C2.53833 21.809 2.73661 22.291 3.13323 22.6876C3.5298 23.0842 4.01222 23.2825 4.58081 23.2825C5.14898 23.2825 5.62849 23.0843 6.0189 22.6876C6.40854 22.2911 6.6039 21.809 6.6039 21.2397V12.7121C6.6039 12.1567 6.40562 11.6809 6.009 11.2843C5.61237 10.8877 5.13621 10.6895 4.58081 10.6895Z" fill="#8B8B8B"/>
<path d="M21.0013 3.03424L22.4094 0.436712C22.5018 0.264745 22.4689 0.132876 22.3104 0.0401497C22.1384 -0.0398072 22.0063 0.000708244 21.9139 0.158832L20.4861 2.77712C19.2298 2.22166 17.901 1.94342 16.4998 1.94342C15.0983 1.94342 13.7694 2.22172 12.5135 2.77712L11.0857 0.158832C10.9929 0.000708244 10.8607 -0.0394492 10.6891 0.0401497C10.5303 0.133293 10.4974 0.264745 10.5902 0.436712L11.9983 3.03424C10.5705 3.76238 9.43333 4.77646 8.58722 6.07869C7.74111 7.38163 7.31787 8.80545 7.31787 10.3527H25.6618C25.6618 8.80581 25.2385 7.38192 24.3924 6.07869C23.5463 4.77646 22.4156 3.76238 21.0013 3.03424ZM12.8604 6.81238C12.7082 6.96501 12.5263 7.04097 12.3149 7.04097C12.1031 7.04097 11.9249 6.96501 11.7795 6.81238C11.6342 6.66046 11.5615 6.47931 11.5615 6.26718C11.5615 6.05577 11.6342 5.87426 11.7795 5.72198C11.9249 5.57006 12.1035 5.49411 12.3149 5.49411C12.5263 5.49411 12.7082 5.57006 12.8604 5.72198C13.0124 5.87462 13.0887 6.05577 13.0887 6.26718C13.0883 6.47895 13.012 6.66046 12.8604 6.81238ZM21.2193 6.81238C21.0736 6.96501 20.895 7.04097 20.684 7.04097C20.4721 7.04097 20.2903 6.96501 20.1383 6.81238C19.9861 6.66046 19.9101 6.47931 19.9101 6.26718C19.9101 6.05577 19.9861 5.87426 20.1383 5.72198C20.2903 5.57006 20.4721 5.49411 20.684 5.49411C20.8954 5.49411 21.0736 5.57006 21.2193 5.72198C21.3647 5.87462 21.4373 6.05577 21.4373 6.26718C21.4373 6.47895 21.3647 6.66046 21.2193 6.81238Z" fill="#8B8B8B"/>
<path d="M7.39673 24.2737C7.39673 24.8824 7.60814 25.3978 8.03101 25.8206C8.45425 26.2435 8.96955 26.4549 9.57788 26.4549H11.0455L11.0656 30.9572C11.0656 31.5257 11.2639 32.0085 11.6605 32.4051C12.057 32.8018 12.5332 33 13.0883 33C13.6565 33 14.1392 32.8018 14.5359 32.4051C14.9325 32.0085 15.1308 31.5258 15.1308 30.9572V26.4553H17.8674V30.9572C17.8674 31.5257 18.0657 32.0085 18.4623 32.4051C18.8589 32.8018 19.3412 33 19.9099 33C20.4781 33 20.9608 32.8018 21.3574 32.4051C21.7541 32.0085 21.9523 31.5258 21.9523 30.9572V26.4553H23.4397C24.0346 26.4553 24.5432 26.2439 24.9669 25.821C25.3897 25.3981 25.6012 24.8828 25.6012 24.2741V11.0657H7.39673V24.2737Z" fill="#8B8B8B"/>
<path d="M28.419 10.6895C27.8635 10.6895 27.3877 10.8848 26.9911 11.2745C26.5945 11.6648 26.3962 12.1443 26.3962 12.7121V21.2397C26.3962 21.809 26.5945 22.291 26.9911 22.6876C27.3877 23.0843 27.8639 23.2825 28.419 23.2825C28.9872 23.2825 29.4699 23.0843 29.8665 22.6876C30.2632 22.291 30.4614 21.809 30.4614 21.2397V12.7121C30.4614 12.1443 30.2632 11.6648 29.8665 11.2745C29.4699 10.8848 28.9872 10.6895 28.419 10.6895Z" fill="#8B8B8B"/>
</g>
<defs>
<clipPath id="clip0">
<rect width="33" height="33" fill="white"/>
</clipPath>
</defs>
</svg>
