<svg width="31" height="31" viewBox="0 0 31 31" fill="none" xmlns="http://www.w3.org/2000/svg">
<path d="M21.4658 0C21.538 0 21.6101 0 21.6863 0C21.8633 2.18619 21.0289 3.8197 20.0147 5.00263C19.0196 6.1774 17.657 7.31678 15.4531 7.1439C15.3061 4.98902 16.1419 3.47666 17.1547 2.29645C18.094 1.19655 19.816 0.217802 21.4658 0Z" fill="#8B8B8B"/>
<path d="M28.1372 22.7548C28.1372 22.7766 28.1372 22.7957 28.1372 22.8161C27.5178 24.6919 26.6344 26.2995 25.5562 27.7915C24.572 29.1459 23.366 30.9687 21.2125 30.9687C19.3516 30.9687 18.1156 29.7721 16.2085 29.7395C14.1911 29.7068 13.0816 30.74 11.2371 31C11.0261 31 10.8151 31 10.6082 31C9.25377 30.804 8.16068 29.7313 7.36434 28.7648C5.01617 25.9089 3.20161 22.2198 2.86401 17.499C2.86401 17.0362 2.86401 16.5747 2.86401 16.1119C3.00695 12.7332 4.64863 9.98619 6.83073 8.65488C7.98236 7.94702 9.5655 7.34398 11.3283 7.61351C12.0838 7.73058 12.8557 7.98922 13.5322 8.24514C14.1734 8.49153 14.9752 8.92849 15.7347 8.90535C16.2493 8.89038 16.7611 8.62221 17.2798 8.43299C18.7989 7.8844 20.2882 7.2555 22.2511 7.55089C24.6102 7.90755 26.2845 8.95572 27.3191 10.5729C25.3235 11.843 23.7458 13.7569 24.0153 17.0253C24.2549 19.9942 25.9809 21.7312 28.1372 22.7548Z" fill="#8B8B8B"/>
</svg>
