<svg width="73" height="74" viewBox="0 0 73 74" fill="none" xmlns="http://www.w3.org/2000/svg">
<g clip-path="url(#clip0)">
<path d="M55.0329 24.9129L45.4384 28.1209L38.8726 18.2416C37.7464 16.5476 35.2569 16.5421 34.1274 18.2416L27.5616 28.1209L17.9671 24.9129C15.8958 24.2196 13.8395 26.0337 14.269 28.1874C18.5068 48.5953 17.8523 48.0579 18.9356 49.1451C28.6203 58.8596 44.3786 58.8602 54.0638 49.1451C55.1471 48.0584 54.5016 48.5545 58.7305 28.1874C59.1577 26.046 57.1181 24.2157 55.0329 24.9129ZM49.4273 45.6795C42.1329 52.3905 30.8665 52.3905 23.5727 45.6795L20.8253 31.8988L27.8245 34.2392C29.0442 34.6476 30.3853 34.1855 31.0987 33.1123L36.5 24.985L41.9013 33.1123C42.6142 34.1855 43.9553 34.647 45.1755 34.2392L52.1747 31.8988L49.4273 45.6795ZM36.5 0.0908203C16.3274 0.0908203 0 16.4666 0 36.7052C0 56.9411 16.3246 73.3197 36.5 73.3197C56.6726 73.3197 73 56.9439 73 36.7052C73 16.4694 56.6754 0.0908203 36.5 0.0908203ZM36.5 67.5987C19.4792 67.5987 5.70312 53.7817 5.70312 36.7052C5.70312 19.6311 19.477 5.81182 36.5 5.81182C53.5208 5.81182 67.2969 19.6288 67.2969 36.7052C67.2969 53.7794 53.523 67.5987 36.5 67.5987Z" fill="#00B6EF"/>
</g>
<defs>
<clipPath id="clip0">
<rect width="73" height="73.2288" fill="white" transform="translate(0 0.0908203)"/>
</clipPath>
</defs>
</svg>
