<svg width="68" height="68" viewBox="0 0 68 68" fill="none" xmlns="http://www.w3.org/2000/svg">
<path d="M34 0C15.2789 0 0 15.2801 0 34C0 52.7211 15.2801 68 34 68C52.7211 68 68 52.7199 68 34C68 15.2789 52.7199 0 34 0ZM34 64.0156C17.4493 64.0156 3.98438 50.5507 3.98438 34C3.98438 22.835 10.1127 13.0751 19.1817 7.905C17.2194 10.8012 16.0703 14.2991 16.0703 18.0625C16.0703 27.9489 24.1136 35.9922 34 35.9922C41.6894 35.9922 47.9453 42.2481 47.9453 49.9375C47.9453 57.7003 41.6894 64.0156 34 64.0156ZM48.8183 60.0949C50.7806 57.1988 51.9297 53.7009 51.9297 49.9375C51.9297 40.0511 43.8864 32.0078 34 32.0078C26.3106 32.0078 20.0547 25.7519 20.0547 18.0625C20.0547 10.2997 26.3106 3.98438 34 3.98438C50.5507 3.98438 64.0156 17.4493 64.0156 34C64.0156 45.165 57.8873 54.9249 48.8183 60.0949Z" fill="#00B6EF"/>
<path d="M36.7766 40.915C34.931 40.915 33.5352 41.7004 32.5307 42.7254C31.5262 41.7004 30.1304 40.915 28.2849 40.915C24.7871 40.915 22.0469 43.8146 22.0469 47.5162C22.0469 51.367 24.9811 53.8435 29.0422 57.2713C31.3431 59.2131 31.1508 59.0746 32.5307 60.2625C33.7489 59.2138 33.8037 59.1412 36.0185 57.2718C39.7137 54.1527 43.0146 51.5302 43.0146 47.5162C43.0146 43.8146 40.2745 40.915 36.7766 40.915ZM33.4486 54.227C33.1477 54.4809 32.8424 54.7386 32.5307 55.003C32.2187 54.7383 31.9132 54.4805 31.6122 54.2263C27.9449 51.1312 26.0312 49.427 26.0312 47.5162C26.0312 46.2159 26.8054 44.8994 28.2849 44.8994C29.9006 44.8994 30.5588 46.9487 30.6124 47.1247L32.5223 54.5494L34.4489 47.1251C34.5018 46.951 35.16 44.8994 36.7764 44.8994C38.256 44.8994 39.0301 46.2159 39.0301 47.5162C39.0303 49.5034 36.9371 51.2825 33.4486 54.227Z" fill="#00B6EF"/>
<path d="M40.862 14.0178L42.4522 12.4277L39.6348 9.61031L38.0447 11.2005C37.411 10.8255 36.7223 10.5344 35.9922 10.3458V8.10156H32.0078V10.346C31.2779 10.5346 30.589 10.8257 29.9553 11.2006L28.3653 9.61031L25.5478 12.4277L27.138 14.0178C26.763 14.6515 26.4719 15.3402 26.2835 16.0702H24.0391V20.0546H26.2835C26.4721 20.7845 26.7632 21.4734 27.138 22.1069L25.5478 23.6971L28.3653 26.5144L29.9555 24.9243C30.5891 25.2992 31.2779 25.5903 32.0079 25.7789V28.0234H35.9923V25.779C36.7223 25.5904 37.4112 25.2993 38.0448 24.9244L39.635 26.5146L42.4523 23.6972L40.8622 22.107C41.2371 21.4734 41.5282 20.7845 41.7168 20.0546H43.9609V16.0702H41.7165C41.5279 15.3404 41.237 14.6515 40.862 14.0178ZM34 22.0469C31.803 22.0469 30.0156 20.2595 30.0156 18.0625C30.0156 15.8655 31.803 14.0781 34 14.0781C36.197 14.0781 37.9844 15.8655 37.9844 18.0625C37.9844 20.2595 36.197 22.0469 34 22.0469Z" fill="#00B6EF"/>
</svg>
