<svg width="70" height="70" viewBox="0 0 70 70" fill="none" xmlns="http://www.w3.org/2000/svg">
<path d="M34.9999 26.3187C31.8395 20.5976 26.8741 16.8473 20.4694 16.8473C10.8461 16.8473 3.8877 24.8507 3.8877 34.6715C3.8877 46.518 15.6806 55.419 26.099 64.1631C27.7332 65.5348 29.4233 66.9532 31.1775 68.4454C33.6259 70.5282 37.2999 70.5161 39.7234 68.4178C57.8361 52.7372 66.1119 45.6698 66.1119 34.6714C66.1119 24.856 59.1584 16.8472 49.5303 16.8472C43.1237 16.8474 38.1592 20.5999 34.9999 26.3187ZM34.9999 32.9533C37.2618 32.9533 39.102 34.7935 39.102 37.0554C39.102 39.3173 37.2618 41.1575 34.9999 41.1575C32.738 41.1575 30.8977 39.3173 30.8977 37.0554C30.8977 34.7935 32.738 32.9533 34.9999 32.9533ZM37.0385 65.3166C36.1322 66.1013 34.7551 66.1034 33.8354 65.3211C32.0709 63.82 26.9432 59.5162 26.0813 58.7896C26.5719 58.519 27.0326 58.1785 27.4455 57.7654C28.641 56.5699 29.2931 54.9106 29.2346 53.2128C29.206 52.3825 29.0079 51.5731 28.6655 50.8309C30.6241 49.8657 32.7794 49.3617 34.9999 49.3617C37.314 49.3617 39.5499 49.9074 41.5691 50.95C40.4723 53.2482 40.8469 56.0584 42.7508 57.9623C43.1997 58.4112 43.7022 58.7734 44.2368 59.0548C42.059 60.97 39.6641 63.0436 37.0385 65.3166ZM49.5305 20.9495C56.6449 20.9495 62.0099 26.8488 62.0099 34.6716C62.0099 41.396 57.9518 46.624 48.5817 55.1734C48.308 55.2582 46.8938 56.3038 45.6517 55.0617C44.8217 54.2317 44.8783 52.8596 45.7479 52.0691C53.9869 44.5818 57.9079 40.0572 57.9079 34.5941H53.8058C53.8058 37.8839 51.4684 41.1915 44.3383 47.7957C41.5148 46.1336 38.3194 45.2596 34.9999 45.2596C31.7715 45.2596 28.6502 46.0903 25.879 47.6699C19.8657 42.334 16.1937 38.2256 16.1937 34.5941H12.0916C12.0916 40.0466 16.6117 45.0493 24.4193 51.848C25.3224 52.6344 25.3833 54.0263 24.5449 54.8648C23.2633 56.146 21.5756 54.9449 21.5892 54.9445C13.1929 47.5963 7.9898 41.7675 7.9898 34.6716C7.9898 26.8488 13.3548 20.9495 20.4694 20.9495C26.9246 20.9495 30.403 26.0486 31.9971 29.4229C28.9547 30.624 26.7956 33.5914 26.7956 37.0555C26.7956 41.5793 30.476 45.2597 34.9999 45.2597C39.5237 45.2597 43.2041 41.5793 43.2041 37.0555C43.2041 33.5914 41.0449 30.6241 38.0026 29.4229C39.5967 26.0485 43.0751 20.9495 49.5305 20.9495Z" fill="#00B6EF"/>
<path d="M16.5402 0C14.3451 0 12.2771 0.885508 10.7172 2.4934C9.18166 4.07613 8.33594 6.15275 8.33594 8.34095C8.33594 12.8648 12.0164 16.5452 16.5402 16.5452C21.064 16.5452 24.7444 12.8648 24.7444 8.34095C24.7444 6.15275 23.8987 4.07613 22.3631 2.4934C20.8032 0.885508 18.7352 0 16.5402 0ZM16.5402 12.4431C14.2783 12.4431 12.438 10.6029 12.438 8.34095C12.438 6.04322 14.3165 4.10211 16.5402 4.10211C18.7638 4.10211 20.6423 6.04322 20.6423 8.34095C20.6423 10.6029 18.8021 12.4431 16.5402 12.4431Z" fill="#00B6EF"/>
<path d="M61.6643 8.34095C61.6643 6.15275 60.8186 4.07613 59.283 2.4934C57.7231 0.885508 55.6551 0 53.4601 0C51.265 0 49.197 0.885508 47.6371 2.4934C46.1016 4.07613 45.2559 6.15275 45.2559 8.34095C45.2559 12.8648 48.9363 16.5452 53.4601 16.5452C57.9839 16.5452 61.6643 12.8648 61.6643 8.34095ZM49.358 8.34095C49.358 6.04322 51.2365 4.10211 53.4601 4.10211C55.6837 4.10211 57.5622 6.04322 57.5622 8.34095C57.5622 10.6029 55.722 12.4431 53.4601 12.4431C51.1982 12.4431 49.358 10.6029 49.358 8.34095Z" fill="#00B6EF"/>
</svg>
