<svg width="67" height="67" viewBox="0 0 67 67" fill="none" xmlns="http://www.w3.org/2000/svg">
<g clip-path="url(#clip0)">
<path d="M65.0371 15.7686H47.2893V11.8679C47.2893 7.49759 43.7337 3.94214 39.3635 3.94214H27.6366C23.2664 3.94214 19.7108 7.49759 19.7108 11.8679V15.7686H1.96289C0.878852 15.7686 0 16.6474 0 17.7314V53.3906C0 58.7212 4.33681 63.0579 9.66724 63.0579H57.3328C62.6632 63.0579 67 58.7212 67 53.3906V17.7314C67 16.6474 66.1211 15.7686 65.0371 15.7686ZM37.9538 41.3843C37.9538 43.8401 35.9557 45.8381 33.5 45.8381C31.0443 45.8381 29.0462 43.8401 29.0462 41.3843V36.9305H37.9538V41.3843ZM39.9167 33.0047H27.0833C25.9993 33.0047 25.1204 33.8835 25.1204 34.9676V38.5331C13.7058 36.0557 5.14905 28.6519 4.04813 19.6943H62.9517C61.8508 28.6519 53.2942 36.0557 41.8796 38.5332V34.9677C41.8796 33.8835 41.0007 33.0047 39.9167 33.0047ZM23.6365 11.8679C23.6365 9.66226 25.431 7.86792 27.6365 7.86792H39.3634C41.5689 7.86792 43.3634 9.66226 43.3634 11.8679V15.7686H23.6363V11.8679H23.6365ZM63.0742 53.3906C63.0742 56.5565 60.4985 59.1321 57.3328 59.1321H9.66724C6.50149 59.1321 3.92578 56.5565 3.92578 53.3906V29.8168C5.51049 32.0829 7.55373 34.1755 10.0221 36.0268C14.2995 39.2348 19.5215 41.462 25.2047 42.5608C25.7786 46.626 29.2789 49.7637 33.5 49.7637C37.7211 49.7637 41.2214 46.626 41.7953 42.5608C47.4785 41.462 52.7003 39.2348 56.9779 36.0268C59.4463 34.1755 61.4895 32.0828 63.0742 29.8168V53.3906Z" fill="#00B6EF"/>
</g>
<defs>
<clipPath id="clip0">
<rect width="67" height="67" fill="white"/>
</clipPath>
</defs>
</svg>
