<svg width="43" height="43" viewBox="0 0 43 43" fill="none" xmlns="http://www.w3.org/2000/svg">
<path d="M29.1711 7.64258C26.3353 7.64258 23.6964 8.50112 21.5 9.97085C19.3033 8.50112 16.6647 7.64258 13.8289 7.64258C6.20369 7.64258 0 13.8456 0 21.4701C0 29.0947 6.20369 35.2977 13.8289 35.2977C16.6647 35.2977 19.3036 34.4392 21.5 32.9694C23.6967 34.4392 26.3353 35.2977 29.1711 35.2977C36.7963 35.2977 43 29.0947 43 21.4701C43 13.8456 36.7963 7.64258 29.1711 7.64258V7.64258ZM29.1711 32.7782C25.0533 32.7782 21.4426 30.5657 19.465 27.2677H20.9183C21.6142 27.2677 22.1781 26.7038 22.1781 26.0079C22.1781 25.3124 21.6142 24.7482 20.9183 24.7482H18.347C18.1915 24.2357 18.0711 23.7085 17.9891 23.1682H22.9343C23.6298 23.1682 24.1941 22.6043 24.1941 21.9084C24.1941 21.2129 23.6298 20.6487 22.9343 20.6487H17.8916C17.9303 20.111 18.0074 19.5835 18.1193 19.069H20.9183C21.6142 19.069 22.1781 18.5048 22.1781 17.8093C22.1781 17.1135 21.6142 16.5495 20.9183 16.5495H18.99C20.8232 12.7725 24.698 10.1621 29.1711 10.1621C35.407 10.1621 40.4805 15.235 40.4805 21.4701C40.4805 27.7053 35.407 32.7782 29.1711 32.7782Z" fill="#8B8B8B"/>
</svg>
